<svg id="Capa_1" enable-background="new 0 0 491.26 491.26" height="512" viewBox="0 0 491.26 491.26" width="512" xmlns="http://www.w3.org/2000/svg"><g><g><path d="m263.189 491.26h-29.179c-10.825 0-19.601-8.775-19.601-19.6v-150.494h68.38v150.494c.001 10.825-8.775 19.6-19.6 19.6z" fill="#b07676"/><path d="m214.41 373.297h68.38v45.881h-68.38z" fill="#a45775"/><g><path d="m248.6 180.99-130.581 152.181c-13.671 15.933-2.351 40.563 18.643 40.563h223.876c20.994 0 32.315-24.631 18.643-40.563z" fill="#78eac4"/><path d="m182.919 257.535-36.796 42.883h119.374c12.875 0 25.075 5.344 33.257 14.565l29.734 33.513c8.833 8.765 4.134 20.906-7.259 25.238h39.309c20.994 0 32.315-24.631 18.643-40.564l-61.203-71.327-6.072-4.309h-128.987z" fill="#71afc4"/><path d="m248.6 94.452-122.425 142.675c-12.817 14.938-2.204 38.03 17.479 38.03h209.892c19.683 0 30.296-23.092 17.479-38.03z" fill="#78eac4"/><path d="m296.925 150.77h-96.649l-39.445 45.97 12.186-.279h93.492c11.341 0 22.087 5.693 29.294 15.518l26.191 35.708c8.135 9.764 3.241 23.463-7.8 27.47h39.352c19.683 0 30.296-23.092 17.479-38.03z" fill="#71afc4"/><path d="m234.714 19.333-84.94 122.522c-9.155 13.205.296 31.257 16.364 31.257h164.924c16.068 0 25.519-18.052 16.364-31.257l-84.94-122.522c-6.72-9.693-21.052-9.693-27.772 0z" fill="#78eac4"/><path d="m328.846 115.055-66.36-95.722c-6.72-9.693-21.052-9.693-27.772 0l-67.131 96.833s29.058 14.867 41.703 14.696c12.645-.17 18.967-11.235 36.671-11.551 17.703-.316 27.187 11.405 40.148 11.551s42.741-15.807 42.741-15.807z" fill="#e7effa"/><path d="m347.427 141.856-84.94-122.522c-6.72-9.693-21.052-9.693-27.772 0l-1.769 2.552c.433.587.834 1.215 1.194 1.889l66.1 123.603c6.23 11.649-2.211 25.735-15.422 25.735h46.244c16.069-.001 25.519-18.052 16.365-31.257z" fill="#71afc4"/><path d="m234.14 23.774 56.977 106.543c14.552-2.817 37.73-15.262 37.73-15.262l-66.36-95.722c-6.72-9.693-21.052-9.693-27.772 0l-1.769 2.552c.433.587.834 1.215 1.194 1.889z" fill="#dcb6f5"/></g><g><path d="m245.342 247.997h-68.352c-5.523 0-10-4.477-10-10s4.477-10 10-10h68.352c5.523 0 10 4.477 10 10s-4.477 10-10 10z" fill="#fff"/></g><g><path d="m193.779 345.565h-27.465c-5.523 0-10-4.477-10-10s4.477-10 10-10h27.465c5.522 0 10 4.477 10 10s-4.478 10-10 10z" fill="#fff"/></g><g><path d="m272.279 342.106c-3.313 0-6-2.686-6-6v-11.331c0-3.314 2.687-6 6-6 3.314 0 6 2.686 6 6v11.331c0 3.314-2.687 6-6 6z" fill="#518699"/></g><g><path d="m301.373 237.663c-3.314 0-6-2.686-6-6v-11.331c0-3.313 2.686-6 6-6 3.313 0 6 2.687 6 6v11.331c0 3.314-2.686 6-6 6z" fill="#518699"/></g><g><path d="m314.355 342.106c-3.314 0-6-2.686-6-6v-11.331c0-3.314 2.686-6 6-6s6 2.686 6 6v11.331c0 3.314-2.687 6-6 6z" fill="#518699"/></g></g><path d="m426.693 36.67 8.214 23.098c.352.989 1.048 1.773 1.927 2.168l20.521 9.246c2.899 1.306 2.899 5.925 0 7.232l-20.521 9.246c-.879.396-1.575 1.179-1.927 2.168l-8.214 23.098c-1.16 3.263-5.265 3.263-6.425 0l-8.214-23.098c-.352-.989-1.048-1.773-1.927-2.168l-20.521-9.246c-2.899-1.306-2.899-5.925 0-7.232l20.521-9.246c.879-.396 1.575-1.18 1.927-2.168l8.214-23.098c1.161-3.263 5.265-3.263 6.425 0z" fill="#bdf4e3"/><path d="m103.97 1.815 6.093 17.133c.261.734.777 1.315 1.429 1.609l15.222 6.858c2.151.969 2.151 4.395 0 5.364l-15.222 6.858c-.652.294-1.168.875-1.429 1.609l-6.093 17.134c-.861 2.421-3.905 2.421-4.766 0l-6.093-17.133c-.261-.734-.777-1.315-1.429-1.609l-15.223-6.858c-2.15-.969-2.15-4.395 0-5.364l15.222-6.858c.652-.294 1.168-.875 1.429-1.609l6.093-17.133c.862-2.421 3.906-2.421 4.767-.001z" fill="#bdf4e3"/><g fill="#78eac4"><ellipse cx="42.203" cy="131.042" rx="17.937" ry="17.937" transform="matrix(.23 -.973 .973 .23 -95.03 142.009)"/><circle cx="459.257" cy="172.618" r="7.737"/></g></g></svg>