<svg id="Flat" height="512" viewBox="0 0 64 64" width="512" xmlns="http://www.w3.org/2000/svg"><path d="m55.615 17.935a12 12 0 0 0 -11.652-8.984c-.332 0-.658.026-.983.054a14.968 14.968 0 0 0 -25.54 2.62 11 11 0 1 0 4.365 18.214 14.935 14.935 0 0 0 16.139 1.452 11.965 11.965 0 0 0 14.615-1.919 6 6 0 1 0 3.056-11.437z" fill="#57b7eb"/><path d="m54 28c-.087 0-.17-.014-.256-.016.007-.01.015-.019.023-.029-.019.01-.039.018-.058.027a8.969 8.969 0 0 1 -3.933-1.036 6.038 6.038 0 0 0 1.761 1.937 19.761 19.761 0 0 1 -6.537 1.117 19.565 19.565 0 0 1 -4.388-.506 15.083 15.083 0 0 0 4.033-5.289 29.871 29.871 0 0 1 -12.645 2.795 29.852 29.852 0 0 1 -15.173-4.123 14.979 14.979 0 0 0 2.191 4.123h-.018a19.951 19.951 0 0 1 -15.677-7.6 10.988 10.988 0 0 0 18.433 10.39 14.91 14.91 0 0 0 16.144 1.516 11.785 11.785 0 0 0 6.1 1.694 11.92 11.92 0 0 0 8.489-3.56 5.979 5.979 0 0 0 8.465-4.727 8.982 8.982 0 0 1 -6.954 3.287z" fill="#4891d3"/><path d="m33 24-10 18h7l-2 12 10-18h-6z" fill="#f9e109"/><path d="m57 45a3.987 3.987 0 0 0 -7.474-1.947 3.035 3.035 0 0 0 -.526-.053 3 3 0 0 0 0 6 2.964 2.964 0 0 0 1.836-.644 3.943 3.943 0 0 0 4.56-.171 2 2 0 1 0 1.604-3.185z" fill="#57b7eb"/><path d="m16 41a3.035 3.035 0 0 0 -.526.053 3.966 3.966 0 0 0 -6.948 0 3.035 3.035 0 0 0 -.526-.053 3 3 0 0 0 0 6 2.964 2.964 0 0 0 1.836-.644 3.958 3.958 0 0 0 4.328 0 2.964 2.964 0 0 0 1.836.644 3 3 0 0 0 0-6z" fill="#57b7eb"/><path d="m57.4 46.185a3.943 3.943 0 0 1 -4.56.171 2.964 2.964 0 0 1 -1.84.644 2.96 2.96 0 0 1 -2.86-3.86 2.991 2.991 0 1 0 2.7 5.216 3.943 3.943 0 0 0 4.56-.171 2 2 0 0 0 3.6-1.185 1.994 1.994 0 0 1 -1.6-.815z" fill="#4891d3"/><path d="m18 45a2.964 2.964 0 0 1 -1.836-.644 3.958 3.958 0 0 1 -4.328 0 2.964 2.964 0 0 1 -1.836.644 2.96 2.96 0 0 1 -2.86-3.86 2.991 2.991 0 1 0 2.7 5.216 3.958 3.958 0 0 0 4.328 0 2.968 2.968 0 0 0 4.7-1.5 2.983 2.983 0 0 1 -.868.144z" fill="#4891d3"/><path d="m33 40h-7l7-16-10 18h7l-2 12z" fill="#fcbc04"/><g fill="#aae1f9"><path d="m49 55a1 1 0 0 1 -.894-1.447l1-2a1 1 0 0 1 1.79.894l-1 2a1 1 0 0 1 -.896.553z"/><path d="m44 55a1 1 0 0 1 -.894-1.447l1-2a1 1 0 0 1 1.79.894l-1 2a1 1 0 0 1 -.896.553z"/><path d="m39 55a1 1 0 0 1 -.894-1.447l1-2a1 1 0 0 1 1.79.894l-1 2a1 1 0 0 1 -.896.553z"/><path d="m50 61a1 1 0 0 1 -.894-1.447l1-2a1 1 0 0 1 1.79.894l-1 2a1 1 0 0 1 -.896.553z"/><path d="m45 61a1 1 0 0 1 -.894-1.447l1-2a1 1 0 0 1 1.79.894l-1 2a1 1 0 0 1 -.896.553z"/><path d="m40 61a1 1 0 0 1 -.894-1.447l1-2a1 1 0 0 1 1.79.894l-1 2a1 1 0 0 1 -.896.553z"/><path d="m16 53a1 1 0 0 1 -.894-1.447l1-2a1 1 0 0 1 1.79.894l-1 2a1 1 0 0 1 -.896.553z"/><path d="m11 53a1 1 0 0 1 -.894-1.447l1-2a1 1 0 0 1 1.79.894l-1 2a1 1 0 0 1 -.896.553z"/><path d="m6 53a1 1 0 0 1 -.894-1.447l1-2a1 1 0 0 1 1.79.894l-1 2a1 1 0 0 1 -.896.553z"/><path d="m13 59a1 1 0 0 1 -.894-1.447l1-2a1 1 0 0 1 1.79.894l-1 2a1 1 0 0 1 -.896.553z"/><path d="m8 59a1 1 0 0 1 -.894-1.447l1-2a1 1 0 0 1 1.79.894l-1 2a1 1 0 0 1 -.896.553z"/><path d="m54 37a1 1 0 0 1 -.894-1.447l1-2a1 1 0 0 1 1.79.894l-1 2a1 1 0 0 1 -.896.553z"/><path d="m47 39a1 1 0 0 1 -.894-1.447l1-2a1 1 0 0 1 1.79.894l-1 2a1 1 0 0 1 -.896.553z"/><path d="m42 39a1 1 0 0 1 -.894-1.447l1-2a1 1 0 0 1 1.79.894l-1 2a1 1 0 0 1 -.896.553z"/><path d="m39 45a1 1 0 0 1 -.894-1.447l1-2a1 1 0 0 1 1.79.894l-1 2a1 1 0 0 1 -.896.553z"/><path d="m36 51a1 1 0 0 1 -.894-1.447l1-2a1 1 0 0 1 1.79.894l-1 2a1 1 0 0 1 -.896.553z"/><path d="m33 57a1 1 0 0 1 -.894-1.447l1-2a1 1 0 0 1 1.79.894l-1 2a1 1 0 0 1 -.896.553z"/><path d="m19 38a1 1 0 0 1 -.894-1.447l1-2a1 1 0 0 1 1.79.894l-1 2a1 1 0 0 1 -.896.553z"/><path d="m5 37a1 1 0 0 1 -.894-1.447l1-2a1 1 0 0 1 1.79.894l-1 2a1 1 0 0 1 -.896.553z"/><path d="m24 47a1 1 0 0 1 -.894-1.447l1-2a1 1 0 0 1 1.79.894l-1 2a1 1 0 0 1 -.896.553z"/><path d="m21 53a1 1 0 0 1 -.894-1.447l1-2a1 1 0 0 1 1.79.894l-1 2a1 1 0 0 1 -.896.553z"/><path d="m23 59a1 1 0 0 1 -.894-1.447l1-2a1 1 0 0 1 1.79.894l-1 2a1 1 0 0 1 -.896.553z"/><path d="m54 55a1 1 0 0 1 -.894-1.447l1-2a1 1 0 0 1 1.79.894l-1 2a1 1 0 0 1 -.896.553z"/><path d="m28 60a1 1 0 0 1 -.894-1.447l1-2a1 1 0 0 1 1.79.894l-1 2a1 1 0 0 1 -.896.553z"/><path d="m42 49a1 1 0 0 1 -.894-1.447l1-2a1 1 0 0 1 1.79.894l-1 2a1 1 0 0 1 -.896.553z"/></g></svg>